<?xml version="1.0" encoding="utf-8"?>
<!-- Generator: Adobe Illustrator 19.0.0, SVG Export Plug-In . SVG Version: 6.00 Build 0)  -->
<svg version="1.1" id="Layer_1" xmlns="http://www.w3.org/2000/svg" xmlns:xlink="http://www.w3.org/1999/xlink" x="0px" y="0px"
	 viewBox="1042 -204 2695.8 1200" style="enable-background:new 1042 -204 2695.8 1200;" xml:space="preserve">
<style type="text/css">
	.st0{fill:#CC0000;}
	.st1{fill:#414042;}
</style>
<path class="st0" d="M2161.6,96l-300-80.4l80.4-139.2l-300,80.4V-204L1422.4,15.6L1342-123.6l-80.4,300L1122.4,96l80.4,300H1042
	l219.6,219.6L1122.4,696l300,80.4L1342,915.6l300-80.4V996l219.6-219.6l80.4,139.2l80.4-300l139.2,80.4l-80.4-300H2242l-219.6-219.6
	L2161.6,96z M1821.2,85.6l24.9,192.5l106.2-61.3L1877.7,396h122.7l-154.3,117.9l106.2,61.3l-192.5,24.9l61.3,106.2L1642,631.7v122.7
	l-117.9-154.3l-61.3,106.2l-24.9-192.5l-106.2,61.3l74.7-179.2h-122.7l154.3-117.9l-106.2-61.3l192.5-24.9l-61.3-106.2l179.2,74.7
	V37.6l117.9,154.3L1821.2,85.6z"/>
<polygon class="st1" points="2938.8,224.7 2861.2,224.7 2861.2,175.5 3072.4,175.5 3072.4,224.7 2994.8,224.7 2994.8,447.5 
	2938.8,447.5 "/>
<polygon class="st1" points="3193.6,175.5 3379.2,175.5 3379.2,224.7 3249.6,224.7 3249.6,287.1 3359.2,287.1 3359.2,335.1 
	3249.6,335.1 3249.6,398.3 3379.2,398.3 3379.2,447.5 3193.6,447.5 "/>
<g>
	<path class="st1" d="M3592,321.1c-13.6-12.8-32.4-37.2-32.4-37.2s4,30,4,49.6v114h-52.4V173.1h5.6L3654,301.9
		c13.2,12.4,32,37.2,32,37.2s-3.6-30.8-3.6-49.6v-114h52.4v274.3h-5.6L3592,321.1z"/>
	<path class="st1" d="M2739.2,447.5h58.8l-124.4-274.4h-4.8l-119.6,274.4h54l21.4-52.1h92.7L2739.2,447.5z M2643.8,348.6l10.6-25.9
		c7.6-18.8,15.6-47.2,16-48.4c0.8,2.8,8.8,30.4,16.4,48.4l10.9,25.9H2643.8z"/>
	<path class="st1" d="M3204.8,597.5c0-25.7,18.2-44.6,44.4-44.6c14.2,0,24.5,3.8,31.6,12l-12.2,12c-4.4-4.5-9.3-7.9-19.5-7.9
		c-15.7,0-26,12.2-26,28.4s10.5,28.7,28.8,28.7c5.6,0,12.5-1,17-3.2v-14.1h-21v-15.8h37.4V632c-5,4.1-17.5,10.1-33.4,10.1
		C3223.7,642.1,3204.8,623.2,3204.8,597.5"/>
	<path class="st1" d="M3328,553.9h32.3c17.8,0,32.4,8.3,32.4,28.7c0,13.2-6.9,21.5-17,25.5l19.8,32.9H3375l-17.7-30.2h-11.4V641
		H3328L3328,553.9L3328,553.9z M3359.7,595.7c8.8,0,14.5-3.5,14.5-13.1c0-9.7-5.9-12.9-14.5-12.9h-13.8v26L3359.7,595.7
		L3359.7,595.7z"/>
	<path class="st1" d="M3430.5,597.5c0-25.7,20-44.7,45.1-44.7c25.1,0,45.1,18.9,45.1,44.7s-20,44.7-45.1,44.7
		C3450.5,642.1,3430.5,623.2,3430.5,597.5 M3502.2,597.5c0-16.3-10.8-28.7-26.6-28.7c-15.9,0-26.6,12.4-26.6,28.7
		s10.8,28.7,26.6,28.7C3491.4,626.1,3502.2,613.7,3502.2,597.5"/>
	<path class="st1" d="M3561.1,609.5v-55.6h17.9v54.5c0,12.7,5.5,17.5,17.4,17.5c11.8,0,17.1-4.9,17.1-17.5v-54.5h17.9v55.6
		c0,22-15.2,32.6-35.1,32.6C3576.3,642.1,3561.1,631.5,3561.1,609.5"/>
	<path class="st1" d="M3674.9,553.9h30.6c17.8,0,32.4,8.8,32.4,29.2c0,20.4-14.7,29.3-32.4,29.3h-12.7V641h-17.9V553.9z
		 M3704.9,596.7c8.8,0,14.5-4,14.5-13.6c0-9.7-5.9-13.4-14.5-13.4h-12.2v27L3704.9,596.7L3704.9,596.7z"/>
	<path class="st1" d="M2546.2,553.9h26.7c26.8,0,45.8,17.8,45.8,43.5s-18.9,43.5-45.8,43.5h-26.7V553.9z M2572,625.2
		c19.3,0,28.2-11.5,28.2-27.8c0-16.3-8.8-27.8-28.2-27.8h-7.9v55.6H2572z"/>
	<path class="st1" d="M2754.2,623.8l14.6-8.4c3.8,6.3,8.8,10.9,17.7,10.9c7.4,0,12.2-3.7,12.2-8.8c0-6.1-4.9-8.3-13.1-11.9l-4.5-1.9
		c-12.9-5.5-21.5-12.4-21.5-27c0-13.4,10.2-23.7,26.2-23.7c11.4,0,19.6,4,25.5,14.3l-14,9c-3.1-5.5-6.4-7.7-11.5-7.7
		c-5.3,0-8.6,3.3-8.6,7.7c0,5.4,3.3,7.5,11,10.9l4.5,1.9c15.2,6.5,23.8,13.2,23.8,28.2c0,16.1-12.7,25-29.7,25
		C2770.2,642.1,2759.4,634.2,2754.2,623.8"/>
	<rect x="2856.4" y="553.9" class="st1" width="17.9" height="87.1"/>
	<path class="st1" d="M2915.4,597.5c0-25.7,18.2-44.6,44.4-44.6c14.2,0,24.5,3.8,31.6,12l-12.2,12c-4.4-4.5-9.3-7.9-19.5-7.9
		c-15.7,0-26,12.2-26,28.4s10.5,28.7,28.8,28.7c5.6,0,12.5-1,17-3.2v-14.1h-21v-15.8h37.4V632c-5,4.1-17.5,10.1-33.4,10.1
		C2934.3,642.1,2915.4,623.2,2915.4,597.5"/>
	<path class="st1" d="M3064.4,600.5c-4.4-4.1-10.4-11.9-10.4-11.9s1.3,9.6,1.3,15.9V641h-16.8v-87.8h1.8l43.9,41.2
		c4.2,4,10.2,11.9,10.2,11.9s-1.2-9.9-1.2-15.9v-36.5h16.8v87.8h-1.8L3064.4,600.5z"/>
	<polygon class="st1" points="2659.4,553.9 2718.8,553.9 2718.8,569.7 2677.4,569.7 2677.4,589.7 2712.4,589.7 2712.4,605 
		2677.4,605 2677.4,625.2 2718.8,625.2 2718.8,641 2659.4,641 	"/>
</g>
</svg>
